<?xml version="1.0" encoding="utf-8"?>
<svg version="1.0" xmlns="http://www.w3.org/2000/svg" width="247.000000pt" height="247.000000pt" viewBox="0 0 247.000000 247.000000" preserveAspectRatio="xMidYMid meet" xmlns:bx="https://boxy-svg.com">
  <defs>
    <bx:export>
      <bx:file format="svg" units="pt"/>
    </bx:export>
  </defs>
  <g transform="translate(0.000000,247.000000) scale(0.100000,-0.100000)" fill="#000000" stroke="none">
    <path d="M 1062 2048 C 1064 1965 1069 1915 1076 1913 C 1082 1911 1099 1939 1115 1975 C 1130 2011 1146 2040 1151 2040 C 1156 2040 1166 2016 1175 1987 C 1206 1878 1232 1874 1269 1971 C 1283 2006 1303 2060 1316 2090 C 1337 2143 1338 2160 1320 2160 C 1316 2160 1296 2114 1276 2057 C 1231 1932 1223 1918 1215 1945 C 1195 2006 1163 2074 1152 2078 C 1145 2080 1130 2059 1115 2026 C 1101 1995 1087 1970 1084 1970 C 1080 1970 1080 2003 1084 2043 C 1091 2119 1084 2180 1068 2180 C 1063 2180 1061 2122 1062 2048 Z"/>
    <path d="M 803 2138 C 738 2057 747 1948 823 1884 C 858 1854 876 1856 903 1892 C 935 1935 938 2018 909 2074 C 896 2100 881 2125 875 2130 C 855 2147 814 2152 803 2138 Z M 886 2066 C 913 2009 915 1988 899 1939 C 878 1877 865 1872 829 1911 C 788 1955 777 1986 785 2038 C 790 2069 797 2083 812 2089 C 828 2095 830 2099 821 2105 C 810 2111 810 2114 821 2120 C 843 2134 862 2118 886 2066 Z"/>
    <path d="M 1471 2024 C 1441 1963 1420 1905 1423 1898 C 1426 1890 1455 1874 1487 1862 C 1529 1847 1550 1833 1558 1815 C 1570 1789 1584 1783 1595 1799 C 1606 1818 1541 1877 1495 1890 C 1470 1897 1450 1907 1450 1911 C 1450 1916 1470 1962 1495 2013 C 1520 2065 1540 2112 1540 2118 C 1540 2153 1519 2124 1471 2024 Z"/>
    <path d="M 1770 1974 C 1770 1962 1794 1923 1818 1897 L 1844 1870 L 1823 1855 C 1801 1839 1670 1686 1670 1676 C 1670 1660 1693 1674 1727 1712 C 1748 1735 1787 1778 1814 1807 L 1864 1861 L 1906 1819 C 1935 1791 1950 1782 1955 1790 C 1960 1798 1930 1834 1871 1891 C 1783 1976 1770 1987 1770 1974 Z"/>
    <path d="M 518 1929 C 501 1919 491 1887 486 1816 C 484 1781 489 1771 548 1704 C 584 1663 618 1630 624 1630 C 652 1631 728 1751 730 1796 C 730 1815 682 1860 661 1860 C 650 1860 627 1848 609 1833 L 577 1805 L 584 1833 C 596 1881 550 1947 518 1929 Z M 560 1808 C 560 1735 552 1725 526 1765 C 508 1793 505 1846 521 1887 C 531 1914 532 1914 546 1896 C 555 1883 560 1851 560 1808 Z M 696 1805 C 705 1770 694 1737 664 1701 C 633 1663 621 1663 590 1695 C 572 1715 569 1723 578 1732 C 585 1739 590 1750 590 1758 C 590 1766 599 1785 611 1801 C 638 1840 687 1842 696 1805 Z"/>
    <path d="M 1077 1740 C 983 1724 919 1680 861 1593 C 839 1560 810 1522 797 1509 C 756 1466 702 1314 694 1219 C 684 1108 689 1098 765 1061 C 829 1029 833 1028 945 1032 C 1008 1033 1060 1032 1060 1029 C 1060 1026 1051 988 1039 944 C 970 683 970 679 1003 647 C 1021 628 1044 622 1145 611 C 1211 604 1273 602 1283 605 C 1288.14 604.657 1298.072 605.736 1309.044 605.66 C 1327.959 605.528 1349.317 607.93 1357.06 609.641 C 1374.06 613.396 1393.825 614.019 1402.41 617.943 C 1420.134 626.044 1422.135 635.974 1429.36 646.161 C 1442.032 664.03 1441.238 661.534 1448.098 686.374 C 1450.188 693.933 1452.286 702.551 1453.187 712.037 C 1453.894 719.484 1455.749 725.672 1457.14 735.2 C 1457.758 741.542 1456.679 744.512 1457.056 748.786 C 1460.264 785.148 1416.107 875.414 1400 947 C 1394 975 1377 1013 1364 1031 C 1335 1070 1338 1072 1433 1090 C 1483 1099 1554 1116 1573 1125 C 1623 1148 1637 1168 1655 1235 C 1673 1305 1674 1392 1657 1438 C 1640 1484 1528 1622 1480 1655 C 1458 1670 1396 1698 1343 1716 C 1241 1751 1179 1757 1077 1740 Z M 1270 1709 C 1300 1698 1346 1683 1372 1676 C 1398 1668 1435 1652 1455 1640 C 1489 1619 1610 1479 1610 1461 C 1610 1455 1599 1455 1580 1461 C 1559 1469 1536.768 1494.477 1498 1556 C 1469.503 1601.223 1443.201 1631.351 1429.845 1651.888 C 1417.572 1670.76 1400.521 1683.361 1396.207 1669.066 C 1395.074 1665.312 1411.982 1632.001 1417.05 1624.01 C 1431.511 1601.205 1453.528 1569.424 1483 1527 C 1530.557 1458.543 1544 1440 1600 1431 L 1635 1425 L 1638 1363 C 1641 1303 1640 1302 1607 1281 C 1578 1263 1545 1210 1527 1150 C 1522 1134 1412 1106 1310 1095 C 1260 1089 1253 1091 1231 1114 C 1218 1128 1195 1142 1179 1145 C 1141 1154 1030 1117 995 1084 C 975 1065 958 1060 920 1060 L 871 1060 L 865 1108 C 857 1172 824 1242 784 1281 C 747 1317 761.646 1375.817 767.649 1391.262 C 772.327 1411.878 777 1418 786 1436 C 799 1459 810 1467 831 1468 C 868 1469 957 1529 1001 1582 C 1060 1654 1081.799 1719.376 1051.799 1719.376 C 1047.064 1719.376 1042.304 1718.473 1037.57 1705.22 C 1034.305 1696.08 1031.814 1674.107 1030 1670 C 1019.798 1646.906 918 1530 872 1506 C 823 1481 813 1491 846 1530 C 862 1549 888 1583 903 1606 C 918 1629 943 1653 958 1661 C 973 1668 992 1680 1000 1687 C 1013 1697 1148 1725 1200 1728 C 1208 1729 1240 1720 1270 1709 Z M 805 1208 C 828 1166 851 1060 838 1060 C 827 1060 744 1101 726 1115 C 710 1127 718.845 1172.562 723.912 1191.909 C 728.888 1210.909 733 1242 737 1264 L 743 1303 L 761 1279 C 771 1266 791 1234 805 1208 Z M 1630 1241 C 1619 1202 1605 1178 1581 1156 C 1536 1116 1543 1163 1590 1229 C 1625 1277 1642 1282 1630 1241 Z M 1198 1107 C 1221 1089 1210 1080 1164 1080 C 1139 1080 1099 1075 1075 1069 C 1052 1063 1024 1060 1014 1062 C 998 1066 1001 1069 1025 1080 C 1136 1127 1166 1132 1198 1107 Z M 1347 1013 C 1360 994 1374 953 1379 921 C 1384 888 1398 843 1410 820 C 1426 789 1430 768 1425 741 C 1417 695 1403.43 664.441 1390 650 C 1376.57 635.559 1309 630 1309 630 L 1257 630 C 1190.487 630 1065.573 646.396 1028.159 658.43 C 1022.823 660.146 1021.709 661.069 1018.326 665.371 C 1015.977 668.358 1013.658 672.188 1012.377 677.722 C 1006.507 703.084 1015.341 757.925 1038.326 838.371 C 1052.326 889.371 1066 935 1071 948 C 1076 961 1080 986 1080 1005 C 1080 1024 1084 1041 1089 1044 C 1094 1047 1130 1053 1169 1056 C 1230 1062 1281.015 1063.158 1293.564 1064.727 C 1314.027 1070.884 1326 1046 1347 1013 Z"/>
    <path d="M 1267 1483 C 1207 1352 1277 1167 1340 1291 C 1356 1321 1361 1350 1361 1401 C 1361 1528 1309 1573 1267 1483 Z M 1340 1425 C 1340 1370 1319 1289 1303 1283 C 1281 1274 1272 1290 1264 1348 C 1258 1396 1267.26 1396.24 1269.7 1415.08 C 1272.92 1439.98 1280.88 1455.95 1288.88 1480.95 C 1302.88 1522.95 1340 1472 1340 1425 Z"/>
    <path d="M 1114 1468 C 1104 1448 1097 1409 1096 1365 C 1095 1301 1098 1290 1123 1256 C 1140 1234 1159 1220 1168 1222 C 1217 1231 1239 1403 1200 1468 C 1173 1512 1137 1512 1114 1468 Z M 1198 1401 C 1203 1350 1185 1264 1168 1254 C 1153 1244 1131 1270 1124 1307 C 1119 1334 1118.28 1375.69 1121.1 1398.86 C 1124.12 1423.63 1127.47 1429.71 1137.33 1450.87 C 1163.79 1507.62 1191 1469 1198 1401 Z"/>
    <path d="M 1380.894 1250.877 C 1376.894 1247.877 1371.484 1238.764 1371.484 1228.764 C 1371.484 1220.655 1364.376 1202.816 1352.078 1192.878 C 1347.694 1189.335 1337.235 1186.111 1332.149 1184.63 C 1316.565 1180.092 1299.408 1192.116 1288.986 1182.624 C 1283.353 1177.494 1283.517 1165.659 1288.825 1159.688 C 1294.151 1153.697 1312.789 1150 1324 1150 C 1337.534 1150 1358.255 1154.917 1372.609 1169.655 C 1378.667 1175.875 1388.241 1182.494 1392.385 1190.602 C 1397.093 1199.812 1400.351 1209.833 1401.037 1219.139 C 1401.489 1225.26 1402.031 1231.591 1401.8 1236.421 C 1401.381 1245.181 1400.778 1252.842 1397.224 1254.825 C 1390.74 1258.443 1385.15 1255.426 1380.894 1250.877 Z"/>
    <path d="M 1956 1581 C 1953 1576 1956 1567 1964 1561 C 1974 1553 1980 1553 1989 1563 C 1995 1571 1997 1580 1993 1583 C 1984 1593 1962 1592 1956 1581 Z"/>
    <path d="M2081 492 c-32 -26 -33 -29 -23 -66 6 -21 31 -59 56 -86 59 -63 60 -85 5 -102 -41 -12 -42 -11 -70 20 -19 21 -29 43 -29 63 0 20 -4 29 -12 26 -15 -5 -12 -50 5 -87 7 -14 29 -33 49 -43 33 -16 40 -17 72 -3 51 21 64 55 38 98 -11 18 -37 49 -56 67 -52 51 -44 96 22 116 26 8 55 -11 45 -29 -3 -6 2 -3 12 6 15 14 16 20 5 32 -21 26 -81 20 -119 -12z"/>
    <path d="M1780 487 c-79 -37 -128 -109 -115 -168 9 -39 57 -94 95 -107 63 -22 167 66 157 133 -22 132 -64 176 -137 142z m72 -34 c21 -24 41 -92 36 -128 -3 -33 -75 -95 -110 -95 -11 0 -36 16 -54 36 -26 27 -34 44 -34 71 0 44 35 93 82 116 43 21 61 21 80 0z"/>
    <path d="M360 477 c-38 -19 -36 -54 5 -117 41 -64 52 -97 38 -119 -17 -28 -51 -25 -83 8 -34 33 -39 65 -12 80 15 9 13 10 -10 11 -35 0 -44 -29 -22 -71 23 -45 53 -68 90 -69 38 0 64 27 64 66 0 35 -33 109 -53 120 -8 5 -17 20 -19 34 -2 19 4 28 25 38 31 15 84 4 80 -17 -2 -6 4 -11 12 -11 25 0 17 36 -10 48 -33 15 -74 15 -105 -1z"/>
    <path d="M1236 449 c-25 -20 -38 -47 -15 -33 8 5 9 -21 4 -95 -8 -111 -2 -131 42 -131 64 0 143 72 143 131 0 42 -43 115 -80 134 -39 20 -62 19 -94 -6z m96 -29 c37 -28 61 -93 47 -124 -14 -31 -61 -65 -99 -73 l-31 -6 5 109 c3 60 5 110 5 112 3 10 53 -2 73 -18z"/>
    <path d="M1519 448 c-2 -54 3 -223 7 -227 2 -3 8 0 14 5 11 11 0 244 -11 244 -5 0 -9 -10 -10 -22z"/>
    <path d="M678 433 c-84 -16 -103 -33 -37 -33 l40 0 -6 -57 c-4 -32 -11 -78 -16 -102 -6 -28 -6 -48 0 -54 14 -14 31 1 31 26 0 12 3 61 6 109 7 94 10 98 77 98 15 0 27 4 27 9 0 9 -25 22 -38 20 -4 -1 -42 -8 -84 -16z"/>
    <path d="M1057 438 c-2 -7 0 -24 5 -37 13 -35 -2 -120 -26 -148 -25 -28 -88 -45 -122 -33 -39 15 -41 62 -8 178 12 43 -14 22 -30 -25 -38 -112 -6 -202 69 -190 104 17 144 71 145 195 0 55 -3 72 -14 72 -8 0 -16 -6 -19 -12z"/>
    <path d="M61 381 c-19 -12 -4 -31 25 -31 26 0 31 9 12 28 -14 14 -19 15 -37 3z"/>
    <path d="M2310 355 c0 -8 9 -15 20 -15 11 0 20 7 20 15 0 8 -9 15 -20 15 -11 0 -20 -7 -20 -15z"/>
    <path d="M 414.89 1582.8 C 411.89 1577.8 414.89 1568.8 422.89 1562.8 C 432.89 1554.8 438.89 1554.8 447.89 1564.8 C 453.89 1572.8 455.89 1581.8 451.89 1584.8 C 442.89 1594.8 420.89 1593.8 414.89 1582.8 Z"/>
    <path d="M 1270.27 1393.89 C 1265.27 1385.55 1270.27 1370.54 1283.61 1360.53 C 1300.29 1347.19 1310.3 1347.19 1325.31 1363.87 C 1335.31 1377.21 1338.65 1392.22 1331.98 1397.22 C 1316.97 1413.9 1280.28 1412.23 1270.27 1393.89 Z" style=""/>
    <path d="M 1127.75 1374.34 C 1122.75 1366 1127.75 1350.99 1141.1 1340.98 C 1157.77 1327.64 1167.78 1327.64 1182.79 1344.32 C 1192.79 1357.66 1196.14 1372.67 1189.46 1377.67 C 1174.45 1394.35 1137.76 1392.68 1127.75 1374.34 Z" style=""/>
  </g>
</svg>